<?xml version="1.0" encoding="UTF-8"?>
<!DOCTYPE svg PUBLIC "-//W3C//DTD SVG 1.1//EN" "http://www.w3.org/Graphics/SVG/1.1/DTD/svg11.dtd">
<!-- Creator: CorelDRAW X6 -->
<svg xmlns="http://www.w3.org/2000/svg" xml:space="preserve" width="3500px" height="700px" version="1.1" style="shape-rendering:geometricPrecision; text-rendering:geometricPrecision; image-rendering:optimizeQuality; fill-rule:evenodd; clip-rule:evenodd"
viewBox="0 0 3500 700"
 xmlns:xlink="http://www.w3.org/1999/xlink">
 <defs>
  <style type="text/css">
   <![CDATA[
    .fil0 {fill:black}
   ]]>
  </style>
 </defs>
 <g id="Слой_x0020_1">
  <metadata id="CorelCorpID_0Corel-Layer"/>
  <g id="_407882864">
   <path id="XMLID_2_" class="fil0" d="M2695 613l760 0 0 7 -759 0 0 -7 -1 0zm-2624 0l817 0 0 7 -817 0 0 -7z"/>
   <path id="XMLID_3_" class="fil0" d="M1118 613c23,5 34,14 34,30 0,18 -15,30 -35,30 -17,0 -30,-6 -43,-17l7 -8c11,10 21,15 36,15 14,0 23,-7 23,-18 0,-10 -6,-16 -27,-20 -24,-6 -35,-13 -35,-31 0,-17 15,-29 34,-29 15,0 26,5 37,13l-6 9c-9,-8 -19,-11 -30,-11 -14,0 -22,7 -22,17 -3,10 3,16 26,20m251 -46l9 0 29 87 30 -87 12 0 -37 104 -9 0 -29 -84 -29 84 -10 0 -37 -104 13 0 30 87 29 -87zm313 10l-64 0 0 36 56 0 0 11 -56 0 0 36 65 0 0 11 -76 0 0 -104 75 0 0 10zm221 93l-36 0 0 -104 36 0c32,0 55,22 55,52 -1,30 -23,53 -55,53m0 -93l-24 0 0 82 24 0c26,0 43,-18 43,-41 -1,-23 -18,-42 -43,-42m311 0l-63 0 0 36 56 0 0 11 -56 0 0 36 65 0 0 11 -76 0 0 -104 75 0 0 10 -1 0zm270 -11l11 0 0 104 -9 0 -67 -85 0 85 -11 0 0 -104 11 0 66 83 0 -83z"/>
   <path id="XMLID_4_" class="fil0" d="M449 234c0,115 -92,207 -207,207 -115,0 -207,-92 -207,-207 0,-103 75,-188 173,-204l0 2c-77,30 -122,102 -122,186 0,107 76,169 156,169 84,0 153,-68 153,-153 0,-72 -57,-132 -131,-132 -86,0 -127,79 -127,79l-1 0c0,0 39,-112 151,-112 68,-2 163,55 163,165z"/>
   <path id="XMLID_4__0" class="fil0" d="M2448 436l59 0 -165 -362 -46 0 -164 362 57 0 41 -93 177 0 41 93zm-196 -141l67 -154 67 154 -135 0z"/>
   <path id="XMLID_4__1" class="fil0" d="M919 435l-68 0 -98 -134 -88 0 0 134 -54 0 0 -360 156 0c80,0 133,43 133,110 0,53 -33,92 -89,106l107 143zm-254 -184l99 0c49,0 81,-25 81,-64 0,-39 -30,-61 -80,-61l-99 0 0 125 -1 0z"/>
   <polygon id="XMLID_4__2" class="fil0" points="3455,436 3188,436 3188,76 3452,76 3452,126 3242,126 3242,229 3431,229 3431,279 3242,279 3242,385 3455,385 "/>
   <polygon id="XMLID_4__3" class="fil0" points="2812,341 2698,170 2698,436 2671,436 2644,436 2644,76 2695,76 2817,259 2939,76 2990,76 2990,436 2963,436 2936,436 2936,170 2822,342 2817,349 "/>
   <polygon id="XMLID_4__4" class="fil0" points="2027,436 1779,436 1779,76 1833,76 1833,385 2027,385 "/>
   <polygon id="XMLID_4__5" class="fil0" points="1400,436 1347,436 1347,76 1609,76 1609,127 1400,127 1400,235 1587,235 1587,285 1400,285 "/>
   <polygon id="XMLID_4__6" class="fil0" points="1140,436 1087,436 1087,76 1140,76 "/>
  </g>
 </g>
</svg>
