<?xml version="1.0" encoding="utf-8"?>
<!-- Generator: Adobe Illustrator 19.0.0, SVG Export Plug-In . SVG Version: 6.00 Build 0)  -->
<svg version="1.1" id="Layer_1" xmlns="http://www.w3.org/2000/svg" xmlns:xlink="http://www.w3.org/1999/xlink" x="0px" y="0px"
	 viewBox="0 0 500 500" style="enable-background:new 0 0 500 500;" xml:space="preserve">
<style type="text/css">
	.st0{fill:#747577;}
</style>
<g id="XMLID_1_">
	<path id="XMLID_2_" class="st0" d="M352.8,278.3H435v0.8h-82.1V278.3z M68.9,278.3h88.4v0.8H68.9V278.3z"/>
	<path id="XMLID_3_" class="st0" d="M182.2,278.3c2.5,0.5,3.7,1.5,3.7,3.2c0,1.9-1.6,3.2-3.8,3.2c-1.8,0-3.2-0.6-4.6-1.8l0.8-0.9
		c1.2,1.1,2.3,1.6,3.9,1.6c1.5,0,2.5-0.8,2.5-1.9c0-1.1-0.6-1.7-2.9-2.2c-2.6-0.6-3.8-1.4-3.8-3.3c0-1.8,1.6-3.1,3.7-3.1
		c1.6,0,2.8,0.5,4,1.4l-0.7,1c-1-0.9-2.1-1.2-3.2-1.2c-1.5,0-2.4,0.8-2.4,1.8C179.1,277.2,179.7,277.8,182.2,278.3 M209.4,273.3h1
		l3.1,9.4l3.2-9.4h1.3l-4,11.3H213l-3.1-9.1l-3.1,9.1h-1.1l-4-11.3h1.4l3.2,9.4L209.4,273.3z M243.3,274.4h-6.9v3.9h6.1v1.2h-6.1
		v3.9h7v1.2h-8.2v-11.3h8.1V274.4z M267.2,284.5h-3.9v-11.3h3.9c3.5,0,6,2.4,6,5.6C273.1,282,270.7,284.5,267.2,284.5 M267.2,274.4
		h-2.6v8.9h2.6c2.8,0,4.7-1.9,4.7-4.4C271.8,276.4,270,274.4,267.2,274.4 M300.8,274.4H294v3.9h6.1v1.2H294v3.9h7v1.2h-8.2v-11.3
		h8.1V274.4z M330,273.2h1.2v11.3h-1l-7.3-9.2v9.2h-1.2v-11.3h1.2l7.1,9V273.2z"/>
	<path id="XMLID_4_" class="st0" d="M184.6,259.2h-5.8v-38.9h5.8V259.2z M212.7,259.2h-5.8v-38.9h28.4v5.5h-22.6v11.7h20.2v5.4
		h-20.2V259.2z M280.5,259.2h-26.8v-38.9h5.8v33.4h21V259.2z M365.5,248.9l-12.4-18.5v28.8h-2.9h-2.9v-38.9h5.5l13.2,19.7l13.2-19.7
		h5.5v38.9h-2.9h-2.9v-28.8l-12.4,18.6l-0.5,0.8L365.5,248.9z M435,259.2h-28.9v-38.9h28.6v5.4H412v11.1h20.4v5.4H412v11.5h23V259.2
		z M160.6,259.1h-7.4l-10.6-14.5h-9.5v14.5h-5.8v-38.9h16.9c8.7,0,14.4,4.7,14.4,11.9c0,5.7-3.6,9.9-9.6,11.4L160.6,259.1z
		 M133.1,239.2h10.7c5.3,0,8.8-2.7,8.8-6.9c0-4.2-3.2-6.6-8.7-6.6h-10.7V239.2z M160.6,259.1h-7.4l-10.6-14.5h-9.5v14.5h-5.8v-38.9
		h16.9c8.7,0,14.4,4.7,14.4,11.9c0,5.7-3.6,9.9-9.6,11.5L160.6,259.1z M133.1,239.2h10.7c5.3,0,8.8-2.7,8.8-6.9
		c0-4.2-3.2-6.6-8.7-6.6h-10.7V239.2z M160.6,259.1h-7.4l-10.6-14.5h-9.5v14.5h-5.8v-38.9h16.9c8.7,0,14.4,4.7,14.4,11.9
		c0,5.7-3.6,9.9-9.6,11.4L160.6,259.1z M133.1,239.2h10.7c5.3,0,8.8-2.7,8.8-6.9c0-4.2-3.2-6.6-8.7-6.6h-10.7V239.2z M160.6,259.1
		h-7.4l-10.6-14.5h-9.5v14.5h-5.8v-38.9h16.9c8.7,0,14.4,4.7,14.4,11.9c0,5.7-3.6,9.9-9.6,11.5L160.6,259.1z M133.1,239.2h10.7
		c5.3,0,8.8-2.7,8.8-6.9c0-4.2-3.2-6.6-8.7-6.6h-10.7V239.2z M326.1,259.2h6.4L314.7,220h-5L292,259.2h6.2l4.4-10.1h19.1
		L326.1,259.2z M304.9,243.9l7.3-16.7l7.3,16.7H304.9z M109.8,237.4c0,12.4-10,22.4-22.4,22.4c-12.4,0-22.4-10-22.4-22.4
		c0-11.1,8.1-20.3,18.7-22.1l0,0.2c-8.3,3.2-13.2,11-13.2,20.1c0,11.6,8.2,18.3,16.9,18.3c9.1,0,16.5-7.4,16.5-16.5
		c0-7.8-6.2-14.3-14.2-14.3c-9.3,0-13.7,8.5-13.7,8.5l-0.1,0c0,0,4.2-12.1,16.3-12.1C99.6,219.3,109.8,225.4,109.8,237.4"/>
</g>
</svg>
