<svg xmlns="http://www.w3.org/2000/svg" xmlns:xlink="http://www.w3.org/1999/xlink">

  <symbol id="avon_logo"  viewBox="0 0 153 30" >
    <path d="M26.328 1.5L40.506 30h-6.635c-4.218-5.62-8.907-7.556-14.186-8.197l-2.973 5.694C15.701 29.163 14.226 30 12.515 30H9.09L23.233 1.5h3.095zm96.377 0l15.327 18.036-.017-15.033c-.002-1.658 1.382-3.003 3.089-3.003h2.807V30h-1.257c-3.593 0-6.052-3.17-6.052-3.17l-12.565-14.836.017 15.003c.002 1.659-1.382 3.003-3.089 3.003h-2.807V1.5h4.547zM93.113.005c4.358 0 8.205 1.482 11.128 4.287 2.981 2.821 4.628 6.623 4.628 10.7 0 4.073-1.652 7.85-4.653 10.637C101.26 28.443 97.313 30 93.113 30c-4.266 0-8.114-1.516-11.13-4.384-2.956-2.83-4.583-6.602-4.583-10.626 0-4.08 1.627-7.88 4.583-10.702C84.929 1.485 88.777.004 93.113.004zM45.86 1.5c1.71 0 3.265.977 3.992 2.509l7.574 15.966L64.943 4.02c.723-1.537 2.282-2.52 3.997-2.52h3.773L58.936 30h-3.04L42.117 1.5h3.745zm47.252 4.066c-5.354 0-9.71 4.227-9.71 9.423 0 5.19 4.356 9.411 9.71 9.411 5.36 0 9.723-4.222 9.723-9.41 0-5.197-4.362-9.424-9.723-9.424zm-68.32 5.727L22.04 17.02c2.254.424 4.44 1.134 6.504 2.102l-3.753-7.827z"></path>
  </symbol>

  <symbol id="ori_logo" viewBox="0 0 3500 700">
    <path id="XMLID_2_" class="fil0" d="M2695 613l760 0 0 7 -759 0 0 -7 -1 0zm-2624 0l817 0 0 7 -817 0 0 -7z"/>
    <path id="XMLID_3_" class="fil0" d="M1118 613c23,5 34,14 34,30 0,18 -15,30 -35,30 -17,0 -30,-6 -43,-17l7 -8c11,10 21,15 36,15 14,0 23,-7 23,-18 0,-10 -6,-16 -27,-20 -24,-6 -35,-13 -35,-31 0,-17 15,-29 34,-29 15,0 26,5 37,13l-6 9c-9,-8 -19,-11 -30,-11 -14,0 -22,7 -22,17 -3,10 3,16 26,20m251 -46l9 0 29 87 30 -87 12 0 -37 104 -9 0 -29 -84 -29 84 -10 0 -37 -104 13 0 30 87 29 -87zm313 10l-64 0 0 36 56 0 0 11 -56 0 0 36 65 0 0 11 -76 0 0 -104 75 0 0 10zm221 93l-36 0 0 -104 36 0c32,0 55,22 55,52 -1,30 -23,53 -55,53m0 -93l-24 0 0 82 24 0c26,0 43,-18 43,-41 -1,-23 -18,-42 -43,-42m311 0l-63 0 0 36 56 0 0 11 -56 0 0 36 65 0 0 11 -76 0 0 -104 75 0 0 10 -1 0zm270 -11l11 0 0 104 -9 0 -67 -85 0 85 -11 0 0 -104 11 0 66 83 0 -83z"/>
    <path id="XMLID_4_" class="fil0" d="M449 234c0,115 -92,207 -207,207 -115,0 -207,-92 -207,-207 0,-103 75,-188 173,-204l0 2c-77,30 -122,102 -122,186 0,107 76,169 156,169 84,0 153,-68 153,-153 0,-72 -57,-132 -131,-132 -86,0 -127,79 -127,79l-1 0c0,0 39,-112 151,-112 68,-2 163,55 163,165z"/>
    <path id="XMLID_4__0" class="fil0" d="M2448 436l59 0 -165 -362 -46 0 -164 362 57 0 41 -93 177 0 41 93zm-196 -141l67 -154 67 154 -135 0z"/>
    <path id="XMLID_4__1" class="fil0" d="M919 435l-68 0 -98 -134 -88 0 0 134 -54 0 0 -360 156 0c80,0 133,43 133,110 0,53 -33,92 -89,106l107 143zm-254 -184l99 0c49,0 81,-25 81,-64 0,-39 -30,-61 -80,-61l-99 0 0 125 -1 0z"/>
    <polygon id="XMLID_4__2" class="fil0" points="3455,436 3188,436 3188,76 3452,76 3452,126 3242,126 3242,229 3431,229 3431,279 3242,279 3242,385 3455,385 "/>
    <polygon id="XMLID_4__3" class="fil0" points="2812,341 2698,170 2698,436 2671,436 2644,436 2644,76 2695,76 2817,259 2939,76 2990,76 2990,436 2963,436 2936,436 2936,170 2822,342 2817,349 "/>
    <polygon id="XMLID_4__4" class="fil0" points="2027,436 1779,436 1779,76 1833,76 1833,385 2027,385 "/>
    <polygon id="XMLID_4__5" class="fil0" points="1400,436 1347,436 1347,76 1609,76 1609,127 1400,127 1400,235 1587,235 1587,285 1400,285 "/>
    <polygon id="XMLID_4__6" class="fil0" points="1140,436 1087,436 1087,76 1140,76 "/>
  </symbol>

  <symbol id="vk_logo" viewBox="0 0 36.7 36.7">
      <path class="st0" d="M36.5,26.8c0-0.1-0.1-0.2-0.1-0.2c-0.6-1.1-1.9-2.6-3.7-4.2l0,0l0,0l0,0h0c-0.8-0.8-1.3-1.3-1.5-1.6
      c-0.4-0.5-0.5-1-0.3-1.5c0.2-0.4,0.7-1.2,1.7-2.5c0.5-0.7,0.9-1.2,1.2-1.6c2.2-2.9,3.2-4.8,2.9-5.6l-0.1-0.2C36.5,9.1,36.3,9,36,8.9
      c-0.3-0.1-0.7-0.1-1.2,0l-5.5,0c-0.1,0-0.2,0-0.4,0c-0.2,0-0.2,0.1-0.2,0.1l-0.1,0l-0.1,0.1c-0.1,0-0.1,0.1-0.2,0.2
      c-0.1,0.1-0.1,0.2-0.2,0.3c-0.6,1.5-1.3,3-2,4.3c-0.5,0.8-0.9,1.5-1.3,2.1c-0.4,0.6-0.7,1-1,1.3c-0.3,0.3-0.5,0.5-0.7,0.7
      c-0.2,0.2-0.4,0.2-0.5,0.2c-0.1,0-0.2-0.1-0.3-0.1c-0.2-0.1-0.3-0.3-0.4-0.5c-0.1-0.2-0.2-0.4-0.2-0.7c0-0.3-0.1-0.6-0.1-0.8
      c0-0.2,0-0.5,0-0.9c0-0.4,0-0.7,0-0.8c0-0.5,0-1,0-1.6c0-0.6,0-1,0-1.3c0-0.3,0-0.7,0-1.1c0-0.4,0-0.7-0.1-0.9
      c0-0.2-0.1-0.4-0.2-0.6c-0.1-0.2-0.2-0.4-0.4-0.5c-0.2-0.1-0.4-0.2-0.6-0.3c-0.7-0.2-1.5-0.2-2.6-0.2c-2.4,0-3.9,0.1-4.6,0.5
      c-0.3,0.1-0.5,0.3-0.7,0.6c-0.2,0.3-0.3,0.4-0.1,0.5c0.8,0.1,1.3,0.4,1.6,0.8l0.1,0.2c0.1,0.2,0.2,0.5,0.3,0.9
      c0.1,0.4,0.1,0.9,0.2,1.4c0.1,0.9,0.1,1.7,0,2.4c-0.1,0.7-0.1,1.2-0.2,1.5c-0.1,0.4-0.1,0.7-0.3,0.9c-0.1,0.2-0.2,0.4-0.2,0.4
      c0,0.1-0.1,0.1-0.1,0.1c-0.2,0.1-0.3,0.1-0.5,0.1c-0.2,0-0.4-0.1-0.6-0.3c-0.3-0.2-0.5-0.4-0.8-0.7c-0.3-0.3-0.6-0.7-0.9-1.3
      c-0.3-0.6-0.7-1.2-1.1-2l-0.3-0.6c-0.2-0.4-0.5-0.9-0.8-1.6c-0.3-0.7-0.6-1.3-0.9-2C7.7,9.5,7.5,9.3,7.3,9.1L7.2,9.1
      C7.1,9,7,9,6.9,8.9C6.8,8.9,6.6,8.8,6.5,8.8l-5.2,0C0.7,8.8,0.3,9,0.1,9.2L0.1,9.3C0,9.4,0,9.5,0,9.6c0,0.1,0,0.3,0.1,0.5
      c0.8,1.8,1.6,3.5,2.5,5.2c0.9,1.7,1.7,3,2.3,4c0.7,1,1.3,2,2,2.9c0.7,0.9,1.1,1.5,1.4,1.7c0.2,0.3,0.4,0.4,0.5,0.6L9.3,25
      c0.3,0.3,0.8,0.7,1.3,1.1c0.6,0.4,1.2,0.8,2,1.3c0.7,0.4,1.6,0.8,2.5,1c1,0.3,1.9,0.4,2.8,0.3h2.2c0.4,0,0.8-0.2,1-0.4l0.1-0.1
      c0.1-0.1,0.1-0.2,0.1-0.4c0-0.2,0.1-0.3,0.1-0.5c0-0.5,0-1,0.1-1.5c0.1-0.4,0.2-0.8,0.3-1c0.1-0.2,0.3-0.4,0.4-0.6
      c0.2-0.2,0.3-0.2,0.3-0.3c0.1,0,0.1-0.1,0.2-0.1c0.3-0.1,0.7,0,1.1,0.3c0.4,0.3,0.8,0.7,1.2,1.1c0.4,0.4,0.8,0.9,1.3,1.5
      c0.5,0.5,1,1,1.3,1.2l0.4,0.2c0.3,0.2,0.6,0.3,1,0.4c0.4,0.1,0.8,0.2,1.1,0.1l4.9-0.1c0.5,0,0.9-0.1,1.1-0.2
      c0.3-0.2,0.4-0.3,0.5-0.5c0.1-0.2,0.1-0.4,0-0.7C36.6,27.1,36.6,26.9,36.5,26.8L36.5,26.8z M36.5,26.8"/>
  </symbol>

  <symbol id="insta_logo" viewBox="0 0 36.7 36.7">
      <path class="st0" d="M32.3,0H4.4C2,0,0,1.9,0,4.3v28.1c0,2.4,2,4.3,4.4,4.3h27.9c2.4,0,4.4-1.9,4.4-4.3V4.3C36.7,1.9,34.7,0,32.3,0
        M26.4,5.7c0-0.6,0.5-1.1,1.1-1.1H31c0.6,0,1.1,0.5,1.1,1.1v3.4c0,0.6-0.5,1.1-1.1,1.1h-3.4c-0.6,0-1.1-0.5-1.1-1.1L26.4,5.7
          L26.4,5.7z M18.4,11.3c3.9,0,7.1,3.1,7.1,7s-3.2,7-7.1,7s-7.1-3.1-7.1-7C11.3,14.5,14.5,11.3,18.4,11.3 M33.2,32.1
          c0,0.6-0.5,1.1-1.1,1.1H4.6c-0.6,0-1.1-0.5-1.1-1.1V14.9H8c-0.6,0.9-0.8,2.5-0.8,3.5c0,6.1,5,11.1,11.2,11.1s11.2-5,11.2-11.1
          c0-1-0.1-2.6-0.9-3.5h4.6L33.2,32.1L33.2,32.1z"/>
  </symbol>

  <symbol id="fb_logo" viewBox="0 0 36.7 36.7">
      <path class="st0" d="M36.7,34.7c0,1.1-0.9,2-2,2h-9.4V22.5h4.8l0.7-5.5h-5.5v-3.5c0-1.6,0.4-2.7,2.7-2.7l2.9,0v-5
        c-0.5-0.1-2.2-0.2-4.3-0.2c-4.2,0-7.1,2.6-7.1,7.3V17h-4.8v5.5h4.8v14.2H2c-1.1,0-2-0.9-2-2V2c0-1.1,0.9-2,2-2h32.7c1.1,0,2,0.9,2,2
        V34.7z"/>
  </symbol>

  <symbol id="clsBtn" viewBox="0 0 174.239 174.239">
      <path d="M146.537,1.047c-1.396-1.396-3.681-1.396-5.077,0L89.658,52.849c-1.396,1.396-3.681,1.396-5.077,0L32.78,1.047
        c-1.396-1.396-3.681-1.396-5.077,0L1.047,27.702c-1.396,1.396-1.396,3.681,0,5.077l51.802,51.802c1.396,1.396,1.396,3.681,0,5.077
        L1.047,141.46c-1.396,1.396-1.396,3.681,0,5.077l26.655,26.655c1.396,1.396,3.681,1.396,5.077,0l51.802-51.802
        c1.396-1.396,3.681-1.396,5.077,0l51.801,51.801c1.396,1.396,3.681,1.396,5.077,0l26.655-26.655c1.396-1.396,1.396-3.681,0-5.077
        l-51.801-51.801c-1.396-1.396-1.396-3.681,0-5.077l51.801-51.801c1.396-1.396,1.396-3.681,0-5.077L146.537,1.047z"/>
  </symbol>

  <symbol id="check" viewBox="0 0 24 24">
    <path fill="#5973b1" fill-rule="evenodd" d="M12 .181c6.627 0 12 5.3 12 11.84 0 6.538-5.373 11.839-12 11.839S0 18.56 0 12.02C0 5.483 5.373.182 12 .182zm5.47 6.877l-7.72 7.616-2.47-2.437-1.06 1.047 3.53 3.483 8.78-8.663-1.06-1.046z"></path>
  </symbol>
  
  <symbol id="discount-icon" viewBox="0 0 512.035 512.035">
		<path style="fill:#F44336;" d="M488.502,256.035l22.464-58.592c2.464-6.464,0.544-13.792-4.864-18.176l-48.704-39.488l-9.856-61.984
      c-1.088-6.848-6.464-12.192-13.312-13.28l-61.984-9.856L332.79,5.923c-4.352-5.408-11.84-7.328-18.144-4.864l-58.624,22.496
      L197.43,1.091c-6.496-2.496-13.76-0.512-18.144,4.864l-39.488,48.736l-61.984,9.856c-6.816,1.088-12.192,6.464-13.28,13.28
      l-9.856,61.984L5.942,179.299c-5.376,4.352-7.328,11.68-4.864,18.144l22.464,58.592L1.078,314.627
      c-2.496,6.464-0.512,13.792,4.864,18.144l48.736,39.456l9.856,61.984c1.088,6.848,6.432,12.224,13.28,13.312l61.984,9.856
      l39.488,48.704c4.384,5.44,11.712,7.36,18.176,4.864l58.56-22.432l58.592,22.464c1.856,0.704,3.776,1.056,5.728,1.056
      c4.704,0,9.344-2.08,12.448-5.952l39.456-48.704l61.984-9.856c6.848-1.088,12.224-6.464,13.312-13.312l9.856-61.984l48.704-39.456
      c5.408-4.384,7.328-11.68,4.864-18.144L488.502,256.035z" />
	  <g>
		  <path style="fill:#FAFAFA;" d="M208.022,224.035c-26.464,0-48-21.536-48-48s21.536-48,48-48s48,21.536,48,48
        S234.486,224.035,208.022,224.035z M208.022,160.035c-8.832,0-16,7.168-16,16s7.168,16,16,16s16-7.168,16-16
        S216.854,160.035,208.022,160.035z" />
		  <path style="fill:#FAFAFA;" d="M304.022,384.035c-26.464,0-48-21.536-48-48s21.536-48,48-48s48,21.536,48,48
		    S330.486,384.035,304.022,384.035z M304.022,320.035c-8.8,0-16,7.2-16,16s7.2,16,16,16s16-7.2,16-16
		    S312.822,320.035,304.022,320.035z" />
		  <path style="fill:#FAFAFA;" d="M176.022,384.035c-3.232,0-6.464-0.96-9.28-2.976c-7.2-5.152-8.864-15.136-3.712-22.336l160-224
        c5.152-7.2,15.136-8.864,22.336-3.712c7.2,5.12,8.832,15.136,3.712,22.304l-160,224
        C185.91,381.699,181.014,384.035,176.022,384.035z" />
    </g>
	</symbol>

  
  <symbol id="gift" viewBox="0 0 512 512">
    <path style="fill:#F44336;" d="M295.776,175.708h-79.584c-32.96,0-82.528-27.872-100.832-46.304
      C89.6,103.452,89.6,61.18,115.392,35.228c25.056-25.216,68.768-25.216,93.856,0c13.856,13.952,50.656,70.624,45.6,108.448h2.272
      c-5.056-37.824,31.744-94.496,45.632-108.448c25.024-25.216,68.736-25.28,93.856,0c25.824,25.952,25.824,68.192,0,94.144
      C378.304,147.804,328.736,175.708,295.776,175.708z M295.776,143.708c22.112,0,64.352-22.976,78.112-36.864
      c13.44-13.504,13.44-35.52,0-49.024c-12.992-13.088-35.552-13.024-48.48,0c-21.568,21.696-43.008,77.12-35.552,84.832
      C289.888,142.652,291.232,143.708,295.776,143.708z M162.336,47.708c-9.152,0-17.76,3.584-24.256,10.112
      c-13.408,13.504-13.408,35.52,0,49.024c13.792,13.888,56,36.864,78.112,36.864c4.576,0,5.92-1.024,5.92-1.024
      c7.456-7.776-13.984-63.2-35.552-84.864C180.064,51.292,171.456,47.708,162.336,47.708z" />
    <path style="fill:#FFC107;" d="M32,239.708v224c0,17.664,14.368,32,32,32h384c17.664,0,32-14.336,32-32v-224H32z" />
    <path style="fill:#FFD54F;" d="M480,143.708H32c-17.632,0-32,14.368-32,32v80c0,8.832,7.168,16,16,16h480c8.832,0,16-7.168,16-16
	    v-80C512,158.044,497.664,143.708,480,143.708z" />
	  <rect x="224" y="143.708" style="fill:#F44336;" width="64" height="352" />
	</symbol>

  <symbol id="trend" viewBox="0 0 512 512">
    <g>
      <path d="m30 330h91v167h-91z" fill="#fed843" />
      <path d="m271 300h91v197h-91z" fill="#fed843" />
      <path d="m151 240h90v257h-90z" fill="#ff641a" />
      <path d="m392 180h90v317h-90z" fill="#ff641a" />
      <path d="m76 330h45v167h-45z" fill="#fabe2c" />
      <path d="m196 240h45v257h-45z" fill="#f03800" />
      <path d="m316 300h46v197h-46z" fill="#fabe2c" />
      <path d="m437 180h45v317h-45z" fill="#f03800" />
      <path
        d="m392 0v30h68.789l-144.789 143.789-60-60-60-60-191.605 190.606 21.21 21.21 170.395-169.394 60 60 60 60 166-165v68.789h30v-120z"
        fill="#97de3d" />
      <path d="m482 51.211v68.789h30v-120h-120v30h68.789l-144.789 143.789-60-60v42.422l60 60z" fill="#59c36a" />
      <path d="m256 482h-256v30h256 256v-30z" fill="#2d5177" />
      <path d="m256 482h256v30h-256z" fill="#32405d" />
    </g>
  </symbol>

  <symbol id="arrow-previous" viewBox="0 0 240.823 240.823">
    <path d="M57.633,129.007L165.93,237.268c4.752,4.74,12.451,4.74,17.215,0c4.752-4.74,4.752-12.439,0-17.179
      l-99.707-99.671l99.695-99.671c4.752-4.74,4.752-12.439,0-17.191c-4.752-4.74-12.463-4.74-17.215,0L57.621,111.816
      C52.942,116.507,52.942,124.327,57.633,129.007z"/>
  </symbol>

  <symbol id="arrow-next" viewBox="0 0 240.823 240.823">
    <path id="Chevron_Right_1_" d="M183.189,111.816L74.892,3.555c-4.752-4.74-12.451-4.74-17.215,0c-4.752,4.74-4.752,12.439,0,17.179
      l99.707,99.671l-99.695,99.671c-4.752,4.74-4.752,12.439,0,17.191c4.752,4.74,12.463,4.74,17.215,0l108.297-108.261
      C187.881,124.315,187.881,116.495,183.189,111.816z"/>
  </symbol>

  <symbol id="arrow-first" viewBox="0 0 240.877 240.877">
    <path d="M113.983,120.483l98.564-99.671c4.704-4.752,4.704-12.439,0-17.191c-4.704-4.74-12.319-4.74-17.011,0L88.466,111.882
			c-4.632,4.668-4.547,12.584,0,17.179l107.07,108.261c4.704,4.74,12.319,4.74,17.011,0c4.692-4.74,4.704-12.439,0-17.179
			L113.983,120.483z"/>
		<path d="M36.832,0c-6.641,0-12.03,5.39-12.03,12.03v216.545c0,6.641,5.39,12.03,12.03,12.03s12.03-5.39,12.03-12.03V12.03
			C48.863,5.378,43.473,0,36.832,0z"/>
  </symbol>

  <symbol id="arrow-last" viewBox="0 0 240.492 240.492">
    <path d="M45.136,3.597c-4.704-4.74-12.319-4.74-17.011,0c-4.704,4.74-4.704,12.415,0,17.155l98.564,99.515l-98.564,99.515
			c-4.704,4.74-4.704,12.415,0,17.155c4.704,4.74,12.319,4.74,17.011,0l107.058-108.092c2.587-2.587,3.621-5.919,3.356-9.468
			c-0.205-2.755-1.383-5.714-3.356-7.699L45.136,3.597z"/>
		<path d="M203.864,0c-6.641,0-12.03,5.39-12.03,12.03v216.173c0,6.641,5.39,12.03,12.03,12.03c6.641,0,12.03-5.39,12.03-12.03
			V12.03C215.894,5.39,210.505,0,203.864,0z"/>
  </symbol>

</svg>
