<svg xmlns="http://www.w3.org/2000/svg" >
  
  <linearGradient id="avon_logo_gradient" x1="100%" y1="50%" x2="0" y2="50%">
      <stop offset="0%" stop-color="red"></stop>
      <stop offset="100%" stop-color="blue"></stop>
    </linearGradient>


  <symbol id="avon_logo" fill="url(#avon_logo_gradient)" viewBox="0 0 153 30">
    <path d="M26.328 1.5L40.506 30h-6.635c-4.218-5.62-8.907-7.556-14.186-8.197l-2.973 5.694C15.701 29.163 14.226 30 12.515 30H9.09L23.233 1.5h3.095zm96.377 0l15.327 18.036-.017-15.033c-.002-1.658 1.382-3.003 3.089-3.003h2.807V30h-1.257c-3.593 0-6.052-3.17-6.052-3.17l-12.565-14.836.017 15.003c.002 1.659-1.382 3.003-3.089 3.003h-2.807V1.5h4.547zM93.113.005c4.358 0 8.205 1.482 11.128 4.287 2.981 2.821 4.628 6.623 4.628 10.7 0 4.073-1.652 7.85-4.653 10.637C101.26 28.443 97.313 30 93.113 30c-4.266 0-8.114-1.516-11.13-4.384-2.956-2.83-4.583-6.602-4.583-10.626 0-4.08 1.627-7.88 4.583-10.702C84.929 1.485 88.777.004 93.113.004zM45.86 1.5c1.71 0 3.265.977 3.992 2.509l7.574 15.966L64.943 4.02c.723-1.537 2.282-2.52 3.997-2.52h3.773L58.936 30h-3.04L42.117 1.5h3.745zm47.252 4.066c-5.354 0-9.71 4.227-9.71 9.423 0 5.19 4.356 9.411 9.71 9.411 5.36 0 9.723-4.222 9.723-9.41 0-5.197-4.362-9.424-9.723-9.424zm-68.32 5.727L22.04 17.02c2.254.424 4.44 1.134 6.504 2.102l-3.753-7.827z"></path>
  </symbol>

  <use href="#avon_logo">
    
  </use>

</svg>