<svg id="_x33_0" enable-background="new 0 0 64 64" height="512" viewBox="0 0 64 64" width="512"
  xmlns="http://www.w3.org/2000/svg">
  <g>
    <g>
      <g>
        <path
          d="m54 44.53v5.47c0-1.1-.45-2.1-1.17-2.83-.73-.72-1.73-1.17-2.83-1.17h-2v-7c0-.55-.45-1-1-1h-11-4-4-11c-.55 0-1 .45-1 1v7h-2c-1.1 0-2.1.45-2.83 1.17-.72.73-1.17 1.73-1.17 2.83v-5.47c0-7.13 5.36-13.13 12.45-13.91l3.59-.4.96 3.78 5-2 5 2 .96-3.78 3.59.4c7.09.78 12.45 6.78 12.45 13.91z"
          fill="#b4dd7f" />
      </g>
      <g>
        <path d="m37.96 30.22-.96 3.78-5-2 4-2z" fill="#a0d468" />
      </g>
      <g>
        <path d="m32 32-5 2-.96-3.78 1.96-.22z" fill="#a0d468" />
      </g>
      <g>
        <path
          d="m43.17 8h-12.17c-.55 0-1 .45-1 1v3h-6-4c0-2.76 1.12-5.26 2.93-7.07s4.31-2.93 7.07-2.93h4c4.1 0 7.62 2.47 9.17 6z"
          fill="#fcd770" />
      </g>
      <g>
        <path d="m48 9v2c0 .55-.45 1-1 1h-3-4-10v-3c0-.55.45-1 1-1h12.17 3.83c.55 0 1 .45 1 1z" fill="#ffc729" />
      </g>
      <g>
        <path d="m24 12v4h-1c-.81 0-1.54.32-2.08.84-.61-1.27-.92-2.67-.92-4.08v-.76z" fill="#656d78" />
      </g>
      <g>
        <path d="m44 12v.76c0 1.41-.31 2.81-.92 4.08-.54-.52-1.27-.84-2.08-.84h-1v-4z" fill="#656d78" />
      </g>
      <g>
        <path
          d="m28 42.83v.01c-3.53 1.54-6 5.06-6 9.16 0 3.27 1.57 6.17 4 8h-9c-.55 0-1-.45-1-1v-5c1.1 0 2-.9 2-2v-4c0-1.1-.9-2-2-2v-7c0-.55.45-1 1-1h11z"
          fill="#d3a06c" />
      </g>
      <g>
        <path
          d="m48 54v5c0 .55-.45 1-1 1h-9c2.43-1.83 4-4.73 4-8 0-4.1-2.47-7.62-6-9.16v-.01-4.83h11c.55 0 1 .45 1 1v7c-1.1 0-2 .9-2 2v4c0 1.1.9 2 2 2z"
          fill="#d3a06c" />
      </g>
      <g>
        <path d="m28 38v4.83.01c1.22-.54 2.58-.84 4-.84s2.78.3 4 .84v-.01-4.83z" fill="#b27946" />
      </g>
      <g>
        <path
          d="m36 42.84c3.53 1.54 6 5.06 6 9.16 0 3.27-1.57 6.17-4 8-1.67 1.25-3.75 2-6 2s-4.33-.75-6-2c-2.43-1.83-4-4.73-4-8 0-4.1 2.47-7.62 6-9.16 1.22-.54 2.58-.84 4-.84s2.78.3 4 .84z"
          fill="#fcd770" />
      </g>
      <g>
        <path
          d="m18 52c0 1.1-.9 2-2 2h-2c-2.21 0-4-1.79-4-4 0-1.1.45-2.1 1.17-2.83.73-.72 1.73-1.17 2.83-1.17h2c1.1 0 2 .9 2 2z"
          fill="#f0d0b4" />
      </g>
      <g>
        <path
          d="m50 46c1.1 0 2.1.45 2.83 1.17.72.73 1.17 1.73 1.17 2.83 0 2.21-1.79 4-4 4h-2c-1.1 0-2-.9-2-2v-4c0-1.1.9-2 2-2z"
          fill="#f0d0b4" />
      </g>
      <g>
        <path
          d="m43.08 16.84c.57.54.92 1.31.92 2.16 0 .83-.34 1.58-.88 2.12s-1.29.88-2.12.88h-1v-6h1c.81 0 1.54.32 2.08.84z"
          fill="#f0d0b4" />
      </g>
      <g>
        <path d="m34 28c.44 0 .88-.05 1.29-.14l.71 2.14-4 2-4-2 .71-2.14c.41.09.85.14 1.29.14z" fill="#f0d0b4" />
      </g>
      <g>
        <path
          d="m40 16v6c0 2.87-2.02 5.27-4.71 5.86-.41.09-.85.14-1.29.14h-4c-.44 0-.88-.05-1.29-.14-2.69-.59-4.71-2.99-4.71-5.86v-6-4h6 10z"
          fill="#f0d0b4" />
      </g>
      <g>
        <path
          d="m24 16v6h-1c-.83 0-1.58-.34-2.12-.88s-.88-1.29-.88-2.12c0-.85.35-1.62.92-2.16.54-.52 1.27-.84 2.08-.84z"
          fill="#f0d0b4" />
      </g>
    </g>
    <g>
      <circle cx="36" cy="16" r="1" />
      <circle cx="28" cy="16" r="1" />
      <path d="m37 21h-2c0 1.103-.897 2-2 2h-4v2h4c2.206 0 4-1.794 4-4z" />
      <path
        d="m33 47.184v-2.184h-2v2h-2v3c0 1.654 1.346 3 3 3 .552 0 1 .449 1 1v1h-1c-.552 0-1-.449-1-1v-1h-2v1c0 1.302.839 2.402 2 2.816v2.184h2v-2h2v-3c0-1.654-1.346-3-3-3-.552 0-1-.449-1-1v-1h1c.552 0 1 .449 1 1v1h2v-1c0-1.302-.839-2.402-2-2.816z" />
      <path
        d="m41.656 29.623-4.91-.546-.189-.567c2.298-.906 4.001-2.992 4.363-5.51h.08c2.206 0 4-1.794 4-4 0-.876-.291-1.68-.77-2.339.466-1.163.728-2.408.757-3.661h2.013c1.103 0 2-.897 2-2v-2c0-1.103-.897-2-2-2h-3.199c-1.871-3.666-5.649-6-9.801-6h-4c-6.065 0-11 4.935-11 11v.764.236h.013c.029 1.253.291 2.498.757 3.661-.479.659-.77 1.463-.77 2.339 0 2.206 1.794 4 4 4h.08c.363 2.518 2.065 4.603 4.363 5.51l-.189.567-4.91.546c-7.608.844-13.344 7.253-13.344 14.908v5.469c0 2.757 2.243 5 5 5h1v4c0 1.103.897 2 2 2h8.695c1.787 1.256 3.959 2 6.305 2s4.517-.744 6.305-2h8.695c1.103 0 2-.897 2-2v-4h1c2.757 0 5-2.243 5-5v-5.469c0-7.655-5.736-14.064-13.344-14.908zm-13.839 1.403 1.744.872-1.872.749-.398-1.563zm8.366 0 .526.058-.398 1.563-1.872-.749zm4.817-10.026v-4c1.103 0 2 .897 2 2s-.897 2-2 2zm1.59-5.666c-.488-.213-1.024-.334-1.59-.334v-2h1.987c-.023.791-.157 1.579-.397 2.334zm4.41-6.334v2h-16v-2zm-17-6h4c3.04 0 5.835 1.529 7.486 4h-10.486c-1.103 0-2 .897-2 2v2h-7.944c.499-4.494 4.319-8 8.944-8zm-7 10v2c-.566 0-1.102.121-1.59.334-.24-.755-.374-1.543-.396-2.334zm-2 6c0-1.103.897-2 2-2v4c-1.103 0-2-.897-2-2zm4 3v-9h14v9c0 2.757-2.243 5-5 5h-4c-2.757 0-5-2.243-5-5zm5 7h4c.203 0 .404-.013.603-.031l.175.524-2.778 1.389-2.777-1.388.175-.524c.198.017.399.03.602.03zm-7.436 2.61 2.72-.302 1.027 4.045 5.689-2.276 5.688 2.275 1.027-4.045 2.72.302c6.593.733 11.565 6.288 11.565 12.922v1.495c-.838-.635-1.87-1.026-3-1.026h-1v-6c0-1.103-.897-2-2-2h-30c-1.103 0-2 .897-2 2v6h-1c-1.13 0-2.162.391-3 1.026v-1.495c0-6.634 4.972-12.189 11.564-12.921zm10.436 9.441v-2.051h2v2.426c-.645-.183-1.313-.313-2-.375zm-2-2.051v2.051c-.688.062-1.355.192-2 .376v-2.427zm-20 11c0-1.654 1.346-3 3-3h2c.552 0 1 .449 1 1v4c0 .551-.448 1-1 1h-2c-1.654 0-3-1.346-3-3zm6 4.816c1.161-.414 2-1.514 2-2.816v-4c0-1.302-.839-2.402-2-2.816v-6.184h10v3.214c-3.556 1.825-6 5.521-6 9.786 0 2.657.947 5.097 2.521 7h-6.521zm6-2.816c0-4.962 4.037-9 9-9s9 4.038 9 9-4.037 9-9 9-9-4.038-9-9zm17.479 7c1.574-1.903 2.521-4.343 2.521-7 0-4.264-2.444-7.961-6-9.786v-3.214h10v6.184c-1.161.414-2 1.514-2 2.816v4c0 1.302.839 2.402 2 2.816v4.184zm9.521-6h-2c-.552 0-1-.449-1-1v-4c0-.551.448-1 1-1h2c1.654 0 3 1.346 3 3s-1.346 3-3 3z" />
    </g>
  </g>
</svg>